ffmpeg version 4.2.4-1ubuntu0.1 Copyright (c) 2000-2020 the FFmpeg developers
  built with gcc 9 (Ubuntu 9.3.0-10ubuntu2)
  configuration: --prefix=/usr --extra-version=1ubuntu0.1 --toolchain=hardened --libdir=/usr/lib/x86_64-linux-gnu --incdir=/usr/include/x86_64-linux-gnu --arch=amd64 --enable-gpl --disable-stripping --enable-avresample --disable-filter=resample --enable-avisynth --enable-gnutls --enable-ladspa --enable-libaom --enable-libass --enable-libbluray --enable-libbs2b --enable-libcaca --enable-libcdio --enable-libcodec2 --enable-libflite --enable-libfontconfig --enable-libfreetype --enable-libfribidi --enable-libgme --enable-libgsm --enable-libjack --enable-libmp3lame --enable-libmysofa --enable-libopenjpeg --enable-libopenmpt --enable-libopus --enable-libpulse --enable-librsvg --enable-librubberband --enable-libshine --enable-libsnappy --enable-libsoxr --enable-libspeex --enable-libssh --enable-libtheora --enable-libtwolame --enable-libvidstab --enable-libvorbis --enable-libvpx --enable-libwavpack --enable-libwebp --enable-libx265 --enable-libxml2 --enable-libxvid --enable-libzmq --enable-libzvbi --enable-lv2 --enable-omx --enable-openal --enable-opencl --enable-opengl --enable-sdl2 --enable-libdc1394 --enable-libdrm --enable-libiec61883 --enable-nvenc --enable-chromaprint --enable-frei0r --enable-libx264 --enable-shared
  libavutil      56. 31.100 / 56. 31.100
  libavcodec     58. 54.100 / 58. 54.100
  libavformat    58. 29.100 / 58. 29.100
  libavdevice    58.  8.100 / 58.  8.100
  libavfilter     7. 57.100 /  7. 57.100
  libavresample   4.  0.  0 /  4.  0.  0
  libswscale      5.  5.100 /  5.  5.100
  libswresample   3.  5.100 /  3.  5.100
  libpostproc    55.  5.100 / 55.  5.100
Input #0, image2, from './Cubo/Cubo%02d.png':
  Duration: 00:00:04.00, start: 0.000000, bitrate: N/A
    Stream #0:0: Video: png, rgb24(pc), 320x240, 25 fps, 25 tbr, 25 tbn, 25 tbc
Stream mapping:
  Stream #0:0 -> #0:0 (png (native) -> h264 (libx264))
Press [q] to stop, [?] for help
[libx264 @ 0x561814799a80] using cpu capabilities: MMX2 SSE2Fast SSSE3 SSE4.2 AVX FMA3 BMI2 AVX2
[libx264 @ 0x561814799a80] profile High 4:4:4 Predictive, level 1.3, 4:4:4 8-bit
Output #0, avi, to 'exercici5/cubo_h264_g12_ref0_r25.avi':
  Metadata:
    ISFT            : Lavf58.29.100
    Stream #0:0: Video: h264 (libx264) (H264 / 0x34363248), yuv444p, 320x240, q=-1--1, 25 fps, 25 tbn, 25 tbc
    Metadata:
      encoder         : Lavc58.54.100 libx264
    Side data:
      cpb: bitrate max/min/avg: 0/0/0 buffer size: 0 vbv_delay: -1
frame=  100 fps=0.0 q=-1.0 Lsize=     417kB time=00:00:03.92 bitrate= 871.8kbits/s speed=  23x    
video:409kB audio:0kB subtitle:0kB other streams:0kB global headers:0kB muxing overhead: 1.943724%
bench: utime=0.768s stime=0.005s rtime=0.171s
bench: maxrss=80128kB
[libx264 @ 0x561814799a80] frame I:12    Avg QP:25.07  size:  6226
[libx264 @ 0x561814799a80] frame P:65    Avg QP:28.42  size:  4143
[libx264 @ 0x561814799a80] frame B:23    Avg QP:29.64  size:  3264
[libx264 @ 0x561814799a80] consecutive B-frames: 66.0%  6.0% 12.0% 16.0%
[libx264 @ 0x561814799a80] mb I  I16..4: 20.8%  0.0% 79.2%
[libx264 @ 0x561814799a80] mb P  I16..4:  9.7%  0.0% 39.0%  P16..4: 18.9% 18.9%  8.6%  0.0%  0.0%    skip: 5.0%
[libx264 @ 0x561814799a80] mb B  I16..4:  2.9%  0.0% 17.5%  B16..8: 30.6% 23.5%  8.6%  direct: 6.1%  skip:10.8%  L0:42.5% L1:35.9% BI:21.5%
[libx264 @ 0x561814799a80] coded y,u,v intra: 71.2% 57.0% 60.2% inter: 40.2% 13.8% 16.9%
[libx264 @ 0x561814799a80] i16 v,h,dc,p: 20% 36% 18% 27%
[libx264 @ 0x561814799a80] i4 v,h,dc,ddl,ddr,vr,hd,vl,hu: 26% 13% 19%  8%  6%  8%  5% 11%  4%
[libx264 @ 0x561814799a80] Weighted P-Frames: Y:12.3% UV:9.2%
[libx264 @ 0x561814799a80] kb/s:838.08
